<?xml version="1.0" encoding="UTF-8"?><svg id="a" xmlns="http://www.w3.org/2000/svg" viewBox="0 0 408.37 122.76"><defs><style>.b{fill:#fcf7f2;}</style></defs><path class="b" d="M166.33,37.02c.34.68.66,1.47.96,2.37.3.9.75,1.7,1.35,2.38.6.69,1.59,1.03,2.96,1.03,1.62,0,2.95-.64,3.98-1.93,1.03-1.28,1.54-3,1.54-5.14s-.57-3.83-1.73-5.08c-1.16-1.24-2.89-1.86-5.21-1.86-3.43,0-6.47,1.46-9.12,4.37-2.66,2.91-5.62,8.1-8.87,15.55-.26.52-.56.73-.9.65-.35-.09-.47-.43-.39-1.03l1.42-6.04c1.11-4.8,1.07-8.25-.13-10.35-1.2-2.1-3.22-3.15-6.04-3.15-1.8,0-3.78.69-5.92,2.06-2.14,1.37-4.48,3.59-6.36,7.07-2.92,5.42-14.78,44-16.91,47.69-1.39,2.41-3.49,3.34-5.46,3.34-1.38,0-2.34-.54-2.9-1.61-.55-1.07-.62-2.55-.19-4.43l10.8-47.05c.43-1.8,1.58-2.7,3.47-2.7h6.94c1.8,0,4.7-.64,4.7-1.93,0-1.11-2.73-1.67-4.18-1.67h-7.33c-1.29,0-1.8-.64-1.54-1.93l3.21-14.27c.26-1.11-.22-1.67-1.41-1.67h-5.27c-.95,0-1.55.48-1.8,1.42l-3.09,13.75c-.34,1.8-1.5,2.7-3.47,2.7h-4.63c-.6,0-1.11.17-1.54.52-.43.34-.64.81-.64,1.41,0,1.11.6,1.67,1.8,1.67h4.88c1.29,0,1.8.64,1.54,1.93l-9.31,40.61c-1.8,6.16-4.56,9.21-6.78,10.9-3.48,2.64-6.69,2.81-9.44,2.8-1.37,0-2.62-1.05-3.13-2.25-.52-1.2-.47-3,.13-5.4l9.77-37.28c1.45-5.31,1.45-9.25,0-11.82-1.46-2.57-3.78-3.86-6.94-3.86-2.23,0-4.72.86-7.46,2.57-2.74,1.72-5.66,4.61-8.74,8.68-3.09,4.07-6.3,9.57-9.64,16.51-.26.52-.56.73-.9.65-.35-.09-.47-.43-.39-1.03l3.22-13.88c1.11-4.8,1.07-8.25-.13-10.35-1.2-2.1-2.92-2.75-5.75-2.75-1.8,0-3.88.63-6.21,1.66-2.33,1.03-5.81,3.48-8.67,6.2-1.72,1.63-4.65,4.44-7.95,9.78l8.27-35.78c.43-1.8.98-3.02,1.67-3.66.68-.65,1.97-1.1,3.86-1.35l2.57-.39c1.71-.26,2.57-.85,2.57-1.8,0-.85-.6-1.28-1.8-1.28h-29.72c-1.55,0-2.32.51-2.32,1.54,0,.69.56,1.16,1.67,1.41l9.41.52c1.72.34,2.79.81,3.22,1.41.43.6.43,1.8,0,3.6L14.45,86.63c-.35,1.8-.88,3.03-1.61,3.67-.73.64-2.04,1.09-3.92,1.35l-6.35.38c-1.71.26-2.57.86-2.57,1.8,0,.86.6,1.29,1.8,1.29h26.66c1.54,0,2.31-.52,2.31-1.54,0-.69-.56-1.16-1.67-1.42l-2.57-.51c-1.72-.34-2.76-.82-3.15-1.42-.39-.6-.41-1.8-.06-3.6,0,0,3.65-17.34,6.22-26.9,2.57-9.56,12.11-18.76,14.19-20.33,2.7-2.05,5.68-3.28,7.22-3.28,1.29,0,2.08.53,2.38,1.6.3,1.08.24,2.55-.19,4.44l-12.21,51.29c-.26,1.11.21,1.67,1.41,1.67h5.27c.94,0,1.54-.47,1.8-1.42,1.2-5.31,2.76-10.75,4.69-16.32,1.93-5.57,4.09-10.93,6.49-16.07,2.4-5.14,4.84-9.75,7.33-13.82,2.49-4.07,4.93-7.28,7.33-9.64,2.4-2.35,4.54-3.53,6.42-3.53,1.2,0,2.13.64,2.77,1.93.64,1.28.49,3.59-.45,6.94l-9.9,37.27c-1.37,5.4-1.28,9.39.26,11.96,1.54,2.57,3.85,3.86,6.94,3.86,1.97,0,6.18-.12,9.11-1.43,3.35-1.51,5.43-3.2,7.9-5.99.43-.49.83-.98,1.21-1.47.03,2.28.51,4.08,1.45,5.41,1.62,2.32,3.89,3.48,6.81,3.48,1.88,0,3.81-.58,5.78-1.74,1.97-1.16,4.22-3.11,5.85-6.36,2.23-4.45,12.91-42.3,17.55-48.66,1.73-2.36,3.54-3.4,5.08-3.4,1.29,0,2.08.53,2.38,1.6.3,1.08.24,2.55-.19,4.44l-12.21,51.29c-.26,1.11.21,1.67,1.41,1.67h5.27c.94,0,1.54-.47,1.8-1.42,1.63-7.19,3.53-14.22,5.72-21.08,2.18-6.85,4.45-13.04,6.81-18.57,2.36-5.53,4.57-9.92,6.62-13.18,2.06-3.25,3.73-4.88,5.02-4.88.77,0,1.32.34,1.67,1.03Z"/><path class="b" d="M250.97,66.52c-2.18-3.56-5.42-6.88-9.7-9.97-4.71-3.25-7.97-5.99-9.77-8.22s-2.7-4.84-2.7-7.84c0-2.32.73-4.24,2.19-5.79,1.45-1.54,3.29-2.31,5.52-2.31,2.49,0,4.59,1.09,6.3,3.28,1.71,2.18,3.43,6.06,5.14,11.63.17.6.39,1.09.65,1.48.25.38.68.58,1.28.58,1.03,0,1.54-.65,1.54-1.93l-.25-14.14c0-.86-.39-1.54-1.16-2.06-1.28-.85-2.74-1.48-4.37-1.86-1.63-.39-3.3-.58-5.01-.58-5.66,0-10.2,1.5-13.63,4.5s-5.14,6.94-5.14,11.82c0,3.6,1.03,6.93,3.08,9.97,2.06,3.04,5.32,6.06,9.77,9.06,4.46,3.17,7.63,6.08,9.52,8.74,1.88,2.66,2.82,5.7,2.82,9.13s-.81,6.1-2.44,8.03c-1.63,1.93-3.68,2.89-6.17,2.89-3,0-5.55-1.11-7.65-3.34-2.1-2.23-4.23-9.07-5.68-15.16-.09-.38-.17-.66-.25-.88,0-.06-.02-.11-.04-.16-.17-.51-.69-.86-1.29-.86-.85,0-1.14.6-1.67,1.41-2.79,4.25-5.11,7.66-7.25,10.68-1.79,2.52-3.89,4.33-5.86,4.33-3,0-3.86-2.79-2.57-8.36l11.44-49.23c.25-1.2-.18-1.8-1.29-1.8-.51,0-1.07.19-1.67.58-.6.38-1.37,1.26-2.31,2.63-.52.78-1.03,1.16-1.55,1.16s-1.02-.38-1.54-1.16c-.94-1.37-2.14-2.37-3.6-3.02-1.46-.64-3-.96-4.63-.96-3.34,0-6.7,1.01-10.09,3.02-3.38,2.01-6.6,4.74-9.64,8.16-3.04,3.43-5.76,7.37-8.16,11.83-2.4,4.46-4.29,9.15-5.66,14.07-1.37,4.93-2.05,9.84-2.05,14.72,0,5.14.85,9.04,2.57,11.7,1.71,2.66,4.11,3.99,7.2,3.99,3.25,0,6.7-1.72,10.35-5.15,3.64-3.42,7.81-9.46,12.53-18.12.26-.52.58-.73.96-.64.39.08.49.43.32,1.02l-1.67,7.07c-1.11,4.89-.96,8.75.45,11.57,1.42,2.83,3.79,4.25,7.14,4.25,3.85,0,7.13-2.14,9.87-5.61,1.63-2.05,4.59-6.92,6.78-10.68l.31,11.66c0,1.03.39,1.76,1.16,2.18,1.37.69,3.17,1.27,5.4,1.74,2.23.47,4.33.71,6.3.71,5.74,0,10.37-1.65,13.88-4.95,3.51-3.3,5.27-7.69,5.27-13.18,0-4.2-1.09-8.08-3.28-11.63ZM204.31,50.51c-1.24,4.2-2.89,8.57-4.95,13.12-2.05,4.54-4.3,8.78-6.74,12.72-2.45,3.94-4.91,7.16-7.4,9.64-2.48,2.49-4.75,3.73-6.81,3.73-1.37,0-2.42-.53-3.15-1.61-.73-1.07-1.09-3.1-1.09-6.1,0-4.46.56-9.02,1.67-13.69s2.59-9.17,4.43-13.5c1.85-4.33,3.9-8.2,6.17-11.63s4.65-6.15,7.14-8.17c2.48-2.01,4.84-3.02,7.07-3.02,3.68,0,5.53,2.62,5.53,7.84,0,2.92-.63,6.48-1.87,10.67Z"/><path class="b" d="M266.08,17.35c1.8,0,3.3-.64,4.5-1.93,1.2-1.29,1.8-2.91,1.8-4.88s-.6-3.58-1.8-4.82c-1.2-1.25-2.7-1.87-4.5-1.87s-3.32.62-4.56,1.87c-1.25,1.24-1.87,2.85-1.87,4.82s.62,3.59,1.87,4.88c1.24,1.29,2.76,1.93,4.56,1.93Z"/><path class="b" d="M406.32,29.56h-14.27c-1.2,0-1.8-.6-1.8-1.8v-14.27c0-1.37-.47-2.05-1.42-2.05-.85,0-1.58.9-2.18,2.69-1.29,3.95-1.6,7.41-2.65,10.05-1.02,2.56-6.68,4.02-24.39,4.95,0,0,0,0,0,.01-1.02-.24-2.12-.35-3.29-.35-2.74,0-5.35.56-7.84,1.67-2.48,1.12-5.35,3.17-8.61,6.17-.77.69-1.41.96-1.93.84-.51-.13-.77-.58-.77-1.35V2.05c0-1.37-.47-2.05-1.41-2.05-.69,0-1.72.42-3.09,1.28-1.11.69-2.48,1.37-4.11,2.06-1.63.68-3.64,1.28-6.04,1.8-.95.17-1.42.68-1.42,1.54s.47,1.37,1.42,1.54l2.7.39c1.2.17,2.03.53,2.5,1.09.47.56.71,1.61.71,3.15v73.66c0,1.8-.28,3.08-.84,3.85-.55.77-1.73,1.29-3.53,1.55l-1.8.25c-.47.09-.87.17-1.59-.55-.61-.61-1.47-1.9-2.91-3.11-3.6-3.04-8.48-4.57-14.65-4.57h-11.06c-1.88,0-3.06-.62-3.53-1.86-.47-1.24-.15-2.55.96-3.92l2.19-2.44c1.11-1.2,2.22-2.12,3.34-2.77,1.11-.64,2.44-.96,3.98-.96,3.6,0,6.84-.94,9.71-2.83,2.87-1.88,5.14-4.45,6.81-7.71s2.51-6.94,2.51-11.06c0-3.42-.58-6.55-1.74-9.38-1.15-2.83-2.76-5.22-4.82-7.2-.6-.6-1.05-1.2-1.35-1.8-.3-.6-.32-1.32-.06-2.18.51-2.23,1.8-3.34,3.86-3.34.94,0,1.62.21,2.05.64s.9.86,1.42,1.28c.51.43,1.32.65,2.44.65,1.28,0,2.35-.43,3.21-1.29.86-.85,1.29-2.01,1.29-3.47,0-1.71-.62-3.15-1.87-4.31-1.24-1.15-2.85-1.73-4.82-1.73s-4.13.92-6.23,2.76c-2.1,1.85-3.54,4.4-4.31,7.65-.25,1.2-.98,1.59-2.18,1.16-1.89-.69-3.86-1.03-5.92-1.03-3.59,0-6.85.94-9.77,2.83-2.91,1.88-5.22,4.41-6.94,7.58-1.71,3.17-2.57,6.73-2.57,10.67s1.03,7.97,3.09,11.57c2.05,3.6,4.84,6.26,8.35,7.97,1.12.6,1.16,1.33.13,2.18l-9.25,7.97c-2.06,1.72-2.79,3.58-2.19,5.6.6,2.01,2.44,3.66,5.53,4.95,1.03.43,3.48,1.82,1.74,2.13-3.47.6-13.05-.46-13.05-.46-1.46-.17-2.44-.65-2.96-1.42-.51-.77-.77-2.05-.77-3.85V30.72c0-1.03-.39-1.55-1.16-1.55-.51,0-1.15.39-1.92,1.16-1.55,1.37-3.13,2.53-4.76,3.47-1.63.95-3.77,1.63-6.43,2.06-1.37.26-2.05.73-2.05,1.41,0,.86.55,1.33,1.67,1.42l2.7.38c1.19.18,2.03.54,2.5,1.1.47.55.71,1.6.71,3.14v43.2c0,1.8-.3,3.06-.9,3.79-.6.73-1.97,1.26-4.11,1.61l-1.55.25c-1.11.26-1.67.77-1.67,1.54,0,.95.65,1.42,1.93,1.42h29.49c-2.62,2.34-4.59,4.26-5.9,5.78-1.42,1.63-2.34,3.07-2.77,4.31-.43,1.24-.64,2.63-.64,4.18,0,3.68,1.88,6.83,5.66,9.45,3.77,2.61,8.91,3.92,15.42,3.92,4.97,0,9.45-.95,13.43-2.83,3.99-1.89,7.18-4.46,9.58-7.71,2.4-3.26,3.6-6.99,3.6-11.19,0-2.16-.3-4.14-.9-5.92.04.01.09.01.13.01h22.49c1.03,0,1.55-.47,1.55-1.42,0-.85-.48-1.36-1.42-1.54l-3.47-.38c-1.8-.17-2.98-.65-3.53-1.42-.56-.77-.84-2.05-.84-3.85v-34.45c0-3.17.64-6.07,1.93-8.68,1.28-2.61,3.02-4.71,5.21-6.3,2.18-1.58,4.64-2.38,7.39-2.38s5.01.86,6.55,2.57c1.55,1.72,2.32,4.68,2.32,8.87v40.37c0,1.8-.28,3.08-.84,3.85-.56.77-1.73,1.29-3.53,1.55l-1.8.25c-.95.18-1.42.69-1.42,1.54,0,.95.6,1.42,1.8,1.42h21.6c1.03,0,1.54-.47,1.54-1.42,0-.85-.47-1.36-1.41-1.54l-2.83-.38c-1.8-.26-2.98-.75-3.54-1.48-.55-.73-.83-1.99-.83-3.79v-41.78c0-5.03-1.07-8.88-3.21-11.57h13.88c1.02,0,1.54.51,1.54,1.54v48.08c0,4.8.96,8.25,2.89,10.35,1.93,2.09,4.39,3.15,7.39,3.15,3.26,0,6.11-1.46,8.55-4.37,2.44-2.92,3.79-7.67,4.05-14.27,0-1.29-.52-1.93-1.54-1.93-.95,0-1.5.6-1.67,1.8-.35,4.03-1.1,6.94-2.25,8.74-1.16,1.8-2.64,2.7-4.44,2.7-1.63,0-2.74-.54-3.34-1.61-.6-1.07-.9-2.55-.9-4.43v-47.95c0-1.2.6-1.8,1.8-1.8h14.27c1.36,0,2.05-.6,2.05-1.8s-.69-1.8-2.05-1.8ZM291.53,63.75c-1.8-3.34-2.7-7.88-2.7-13.62s.92-10.05,2.76-13.44c1.85-3.38,4.26-5.07,7.27-5.07s5.41,1.69,7.26,5.07c1.84,3.39,2.76,7.87,2.76,13.44s-.9,10.28-2.7,13.62c-1.8,3.35-4.24,5.02-7.32,5.02s-5.53-1.67-7.33-5.02ZM312.67,112.15c-1.5,2.44-3.53,4.35-6.1,5.72s-5.4,2.06-8.49,2.06c-4.71,0-8.37-1.16-10.99-3.47-2.61-2.32-3.92-5.36-3.92-9.13,0-1.8.34-3.56,1.03-5.27.69-1.72,2.36-3.98,5.01-6.81,1.2-1.29,2.47-2.19,3.8-2.7,1.32-.52,3.32-.77,5.97-.77h2.96c4.11,0,7.31,1.05,9.58,3.15,2.27,2.09,3.4,5.07,3.4,8.93,0,3.08-.75,5.85-2.25,8.29Z"/></svg>